# xmcd
#
# Track frame offsets:
#	150
#	29168
#	59613
#	91178
#	112896
#	129372
#	166199
#	195062
#	218659
#
# Disc length: 3382 seconds
#
# Revision: 1
# Processed by: cddbd v1.4PL0 Copyright (c) Steve Scherf et al.
# Submitted via: audiograbber 1.81.02
#
DISCID=6e0d3409
DTITLE=Big Daddy G - Blue Sound (Live at the Harvest Fest)
DYEAR=2002
DGENRE=Blues
TTITLE0=Stringbean 'n Tater
TTITLE1=Tramp
TTITLE2=Tigerman
TTITLE3=New Man Blues
TTITLE4=Mohair Sam
TTITLE5=Help Me
TTITLE6=Honey Bee Buzz
TTITLE7=You're Cute
TTITLE8=Rocket 88
EXTD=
EXTT0=
EXTT1=
EXTT2=
EXTT3=
EXTT4=
EXTT5=
EXTT6=
EXTT7=
EXTT8=
PLAYORDER=
